<?xml version="1.0" encoding="UTF-8"?>
<svg id="Layer_2" data-name="Layer 2" xmlns="http://www.w3.org/2000/svg" viewBox="0 0 316.47 316.47">
  <defs>
    <style>
      .cls-1 {
        fill: #182844;
      }
    </style>
  </defs>
  <g id="Layer_1-2" data-name="Layer 1">
    <g>
      <path class="cls-1" d="M168.93,142.98l5.08,5.34c5.55,5.83,14.78,6.06,20.61.52l81.62-77.64c5.83-5.55,6.06-14.78.52-20.61l-5.08-5.34c-5.55-5.83-14.78-6.06-20.61-.52l-81.62,77.64c-5.83,5.55-6.06,14.78-.52,20.61Z"/>
      <path class="cls-1" d="M194.1,169.44c-5.55-5.83-14.78-6.06-20.61-.52l-5.34,5.08c-5.83,5.55-6.06,14.78-.52,20.61l77.64,81.62c5.55,5.83,14.78,6.06,20.61.52l5.34-5.08c5.83-5.55,6.06-14.78.52-20.61l-77.64-81.62Z"/>
      <path class="cls-1" d="M147.54,173.49l-5.08-5.34c-5.55-5.83-14.78-6.06-20.61-.52l-81.62,77.64c-5.83,5.55-6.06,14.78-.52,20.61l5.08,5.34c5.55,5.83,14.78,6.06,20.61.52l81.62-77.64c5.83-5.55,6.06-14.78.52-20.61Z"/>
      <path class="cls-1" d="M122.37,147.03c5.55,5.83,14.78,6.06,20.61.52l5.34-5.08c5.83-5.55,6.06-14.78.52-20.61L71.19,40.23c-5.55-5.83-14.78-6.06-20.61-.52l-5.34,5.08c-5.83,5.55-6.06,14.78-.52,20.61l77.64,81.62Z"/>
      <rect class="cls-1" x="142.71" y=".02" width="36.53" height="59.4" rx="14.58" ry="14.58" transform="translate(-.15 .8) rotate(-.29)"/>
      <path class="cls-1" d="M301.78,142.63l-30.24.15c-8.05.04-14.55,6.6-14.51,14.65l.04,7.37c.04,8.05,6.6,14.55,14.65,14.51l30.24-.15c8.05-.04,14.55-6.6,14.51-14.65l-.04-7.37c-.04-8.05-6.6-14.55-14.65-14.51Z"/>
      <rect class="cls-1" x="137.23" y="257.05" width="36.53" height="59.4" rx="14.58" ry="14.58" transform="translate(-1.43 .78) rotate(-.29)"/>
      <path class="cls-1" d="M59.44,159.03l-.04-7.37c-.04-8.05-6.6-14.55-14.65-14.51l-30.24.15C6.45,137.35-.04,143.91,0,151.96l.04,7.37c.04,8.05,6.6,14.55,14.65,14.51l30.24-.15c8.05-.04,14.55-6.6,14.51-14.65Z"/>
    </g>
  </g>
</svg>