<?xml version="1.0" encoding="UTF-8"?>
<svg id="Layer_2" data-name="Layer 2" xmlns="http://www.w3.org/2000/svg" viewBox="0 0 1991.57 316.47">
  <defs>
    <style>
      .cls-1 {
        fill: #1e70af;
      }
    </style>
  </defs>
  <g id="Layer_1-2" data-name="Layer 1">
    <g>
      <path class="cls-1" d="M168.93,142.98l5.08,5.34c5.55,5.83,14.78,6.06,20.61.52l81.62-77.64c5.83-5.55,6.06-14.78.52-20.61l-5.08-5.34c-5.55-5.83-14.78-6.06-20.61-.52l-81.62,77.64c-5.83,5.55-6.06,14.78-.52,20.61Z"/>
      <path class="cls-1" d="M194.1,169.44c-5.55-5.83-14.78-6.06-20.61-.52l-5.34,5.08c-5.83,5.55-6.06,14.78-.52,20.61l77.64,81.62c5.55,5.83,14.78,6.06,20.61.52l5.34-5.08c5.83-5.55,6.06-14.78.52-20.61l-77.64-81.62Z"/>
      <path class="cls-1" d="M147.54,173.49l-5.08-5.34c-5.55-5.83-14.78-6.06-20.61-.52l-81.62,77.64c-5.83,5.55-6.06,14.78-.52,20.61l5.08,5.34c5.55,5.83,14.78,6.06,20.61.52l81.62-77.64c5.83-5.55,6.06-14.78.52-20.61Z"/>
      <path class="cls-1" d="M122.37,147.03c5.55,5.83,14.78,6.06,20.61.52l5.34-5.08c5.83-5.55,6.06-14.78.52-20.61L71.19,40.23c-5.55-5.83-14.78-6.06-20.61-.52l-5.34,5.08c-5.83,5.55-6.06,14.78-.52,20.61l77.64,81.62Z"/>
      <rect class="cls-1" x="142.71" y=".02" width="36.53" height="59.4" rx="14.58" ry="14.58" transform="translate(-.15 .8) rotate(-.29)"/>
      <path class="cls-1" d="M301.78,142.63l-30.24.15c-8.05.04-14.55,6.6-14.51,14.65l.04,7.37c.04,8.05,6.6,14.55,14.65,14.51l30.24-.15c8.05-.04,14.55-6.6,14.51-14.65l-.04-7.37c-.04-8.05-6.6-14.55-14.65-14.51Z"/>
      <rect class="cls-1" x="137.23" y="257.05" width="36.53" height="59.4" rx="14.58" ry="14.58" transform="translate(-1.43 .78) rotate(-.29)"/>
      <path class="cls-1" d="M59.44,159.03l-.04-7.37c-.04-8.05-6.6-14.55-14.65-14.51l-30.24.15C6.45,137.35-.04,143.91,0,151.96l.04,7.37c.04,8.05,6.6,14.55,14.65,14.51l30.24-.15c8.05-.04,14.55-6.6,14.51-14.65Z"/>
    </g>
    <polygon class="cls-1" points="395.57 262.75 587.38 262.75 587.38 226.62 435.28 226.62 435.28 170.31 567.63 170.31 567.63 140.48 435.28 140.48 435.28 87.54 587.38 87.54 587.38 54.14 395.57 54.14 395.57 262.75"/>
    <rect class="cls-1" x="617.21" y="54.14" width="36.13" height="208.61"/>
    <rect class="cls-1" x="670.06" y="110.67" width="36.13" height="152.08"/>
    <path class="cls-1" d="M772.79,182.43v-42.04h46v-29.72h-46.23v-56.53h-44.04v135.56c0,31.88,16.17,50.15,32.34,60.44,13.57,8.64,29.6,12.61,45.7,12.61h32.24v-36.37h-32.57c-37.03,0-33.44-43.94-33.44-43.94Z"/>
    <path class="cls-1" d="M928.86,110.54c-46.82,0-84.77,34.1-84.77,76.19s37.95,76.12,84.77,76.12c35.36,0,65.69-19.45,78.41-47.04l-38.54-5.84c-8.43,11.69-23.15,19.45-39.87,19.45-26.26,0-47.49-19.08-47.49-42.68s21.23-42.68,47.49-42.68c23.23,0,42.53,14.94,46.67,34.69l-78.78,10.58,72.19,5.33,6.51.52,37.28,2.74h.07c.3-2.07.59-4.14.74-6.21.07-1.63.15-3.25.15-4.96,0-3.33-.22-6.58-.74-9.76-5.33-37.5-40.98-66.42-84.1-66.42Z"/>
    <path class="cls-1" d="M1427.33,209.95c-8.43,11.69-23.15,19.45-39.87,19.45-26.26,0-47.49-19.08-47.49-42.68s21.23-42.68,47.49-42.68c23.23,0,42.53,14.94,46.67,34.69l-78.78,10.58,72.19,5.33,6.51.52,37.28,2.74h.07c.3-2.07.59-4.14.74-6.21.07-1.63.15-3.25.15-4.96,0-3.33-.22-6.58-.74-9.76-5.33-37.5-40.98-66.42-84.1-66.42-46.82,0-84.77,34.1-84.77,76.19s37.95,76.12,84.77,76.12c35.36,0,65.69-19.45,78.41-47.04l-38.54-5.84Z"/>
    <polygon class="cls-1" points="1244.68 186.69 1092.89 47.79 1092.89 262.84 1133.34 262.84 1133.34 135.39 1287.66 274.16 1287.66 53.93 1244.68 53.93 1244.68 186.69"/>
    <polygon class="cls-1" points="1580.47 110.54 1541.28 157.55 1502.08 110.54 1451 110.54 1516.27 187.53 1453.48 262.84 1502.43 262.84 1541.28 217.02 1580.12 262.84 1629.07 262.84 1566.28 187.53 1631.56 110.54 1580.47 110.54"/>
    <path class="cls-1" d="M1818.11,110.54h-37.83c-.13,0-.24.11-.24.24v67.81c0,26.2-20.23,49.13-46.42,49.74-26.86.63-48.78-20.91-48.78-47.55v-70c0-.13-.11-.24-.24-.24h-37.83c-.13,0-.24.11-.24.24v63.01c0,47.43,37.07,88.25,84.49,89.04,48.08.8,87.34-37.97,87.34-85.94v-66.11c0-.13-.11-.24-.24-.24Z"/>
    <circle class="cls-1" cx="688.12" cy="73.86" r="19.72"/>
    <path class="cls-1" d="M1915.82,172.67c-22,0-48.66,2.29-48.66-11.85,0-11.14,19.09-20.9,44.43-20.9,31.1,0,40.96,9.43,40.96,19.86,11.51,0,39.02.18,39.02.18,0-22.91-21.57-49.71-79.98-49.71-49.08,0-81.19,30.2-81.19,49.62,0,14.26,0,43.57,84.91,39.62,29.77-1.39,40.44,1.99,40.44,12.23,0,11.65-14.34,21.49-39.07,21.49-19.54,0-40.1.75-48.02-20.36-18.51,0-31.48-.19-38.27-.19,0,10.16,9.72,49.9,87.32,49.9,43.98,0,73.86-18.42,73.86-46.73,0-45.34-53.44-43.15-75.75-43.15Z"/>
  </g>
</svg>